<!-- LOCKED brand asset · HansMed header logo mark · DO NOT EDIT without owner approval · See v2/assets/img/brand/BRAND.md -->
<svg xmlns="http://www.w3.org/2000/svg" viewBox="0 0 66 66" role="img" aria-label="HansMed 3x3 logo mark">
  <rect x="1" y="1" width="19" height="19" fill="#fff" stroke="#1a1612" stroke-width="1.5"/><circle cx="10.5" cy="10.5" r="3.5" fill="#1a1612"/>
  <rect x="23" y="1" width="20" height="19" fill="#1a1612"/><circle cx="33" cy="10.5" r="3.5" fill="#fff"/>
  <rect x="46" y="1" width="19" height="19" fill="#fff" stroke="#1a1612" stroke-width="1.5"/><circle cx="55.5" cy="10.5" r="3.5" fill="#1a1612"/>
  <rect x="1" y="23" width="19" height="20" fill="#fff" stroke="#1a1612" stroke-width="1.5"/><circle cx="10.5" cy="33" r="3.5" fill="#1a1612"/>
  <rect x="23" y="23" width="20" height="20" fill="#fff" stroke="#1a1612" stroke-width="1.5"/><circle cx="33" cy="33" r="3.5" fill="#1a1612"/>
  <rect x="46" y="23" width="19" height="20" fill="#fff" stroke="#1a1612" stroke-width="1.5"/><circle cx="55.5" cy="33" r="3.5" fill="#1a1612"/>
  <rect x="1" y="46" width="19" height="19" fill="#fff" stroke="#1a1612" stroke-width="1.5"/><circle cx="10.5" cy="55.5" r="3.5" fill="#1a1612"/>
  <rect x="23" y="46" width="20" height="19" fill="#1a1612"/><circle cx="33" cy="55.5" r="3.5" fill="#fff"/>
  <rect x="46" y="46" width="19" height="19" fill="#fff" stroke="#1a1612" stroke-width="1.5"/><circle cx="55.5" cy="55.5" r="3.5" fill="#1a1612"/>
</svg>
