<svg xmlns="http://www.w3.org/2000/svg" viewBox="0 0 360 60" role="img" aria-label="HansMed · 汉方现代中医"><style>.en{font-family:'Fraunces','Source Serif 4',Georgia,serif;font-weight:500;font-size:30px;letter-spacing:-0.01em;fill:#0F4C3A}.dot{font-family:'Fraunces',serif;font-weight:500;font-size:30px;fill:#9CA3AF}.zh{font-family:'Noto Serif SC',serif;font-weight:500;font-size:18px;letter-spacing:0.04em;fill:#5A6275}</style><g transform="translate(0,7.5)"><rect x="0" y="0" width="14" height="14" fill="#1A1F2E"/><circle cx="7" cy="7" r="2.4" fill="#FFFFFF"/><rect x="15.5" y="0" width="14" height="14" fill="#FFFFFF" stroke="#1A1F2E" stroke-width="2"/><circle cx="22.5" cy="7" r="2.4" fill="#1A1F2E"/><rect x="31" y="0" width="14" height="14" fill="#1A1F2E"/><circle cx="38" cy="7" r="2.4" fill="#FFFFFF"/><rect x="0" y="15.5" width="14" height="14" fill="#1A1F2E"/><circle cx="7" cy="22.5" r="2.4" fill="#FFFFFF"/><rect x="15.5" y="15.5" width="14" height="14" fill="#1A1F2E"/><circle cx="22.5" cy="22.5" r="2.4" fill="#FFFFFF"/><rect x="31" y="15.5" width="14" height="14" fill="#1A1F2E"/><circle cx="38" cy="22.5" r="2.4" fill="#FFFFFF"/><rect x="0" y="31" width="14" height="14" fill="#1A1F2E"/><circle cx="7" cy="38" r="2.4" fill="#FFFFFF"/><rect x="15.5" y="31" width="14" height="14" fill="#FFFFFF" stroke="#1A1F2E" stroke-width="2"/><circle cx="22.5" cy="38" r="2.4" fill="#1A1F2E"/><rect x="31" y="31" width="14" height="14" fill="#1A1F2E"/><circle cx="38" cy="38" r="2.4" fill="#FFFFFF"/></g><text x="63" y="40" class="en">HansMed</text><text x="201" y="40" class="dot">·</text><text x="217" y="38" class="zh">汉方现代中医</text></svg>
