<svg xmlns="http://www.w3.org/2000/svg" viewBox="0 0 88 88" role="img" aria-label="HansMed"><rect x="0" y="0" width="28" height="28" fill="#1A1F2E"/><circle cx="14" cy="14" r="4.5" fill="#FFFFFF"/><rect x="30" y="0" width="28" height="28" fill="#FFFFFF" stroke="#1A1F2E" stroke-width="2"/><circle cx="44" cy="14" r="4.5" fill="#1A1F2E"/><rect x="60" y="0" width="28" height="28" fill="#1A1F2E"/><circle cx="74" cy="14" r="4.5" fill="#FFFFFF"/><rect x="0" y="30" width="28" height="28" fill="#1A1F2E"/><circle cx="14" cy="44" r="4.5" fill="#FFFFFF"/><rect x="30" y="30" width="28" height="28" fill="#1A1F2E"/><circle cx="44" cy="44" r="4.5" fill="#FFFFFF"/><rect x="60" y="30" width="28" height="28" fill="#1A1F2E"/><circle cx="74" cy="44" r="4.5" fill="#FFFFFF"/><rect x="0" y="60" width="28" height="28" fill="#1A1F2E"/><circle cx="14" cy="74" r="4.5" fill="#FFFFFF"/><rect x="30" y="60" width="28" height="28" fill="#FFFFFF" stroke="#1A1F2E" stroke-width="2"/><circle cx="44" cy="74" r="4.5" fill="#1A1F2E"/><rect x="60" y="60" width="28" height="28" fill="#1A1F2E"/><circle cx="74" cy="74" r="4.5" fill="#FFFFFF"/></svg>
